<svg xmlns="http://www.w3.org/2000/svg" width="15.481" height="15.427" viewBox="0 0 15.481 15.427">
  <path id="Notes-Icon-09iuhg" d="M7.675,11.615l.008-.026a1.98,1.98,0,0,1,.473-.767L11.9,6.974,14.278,9.34l-3.746,3.847a1.982,1.982,0,0,1-.772.475l-.025.008-2.662.6Zm.8-.359,1.7,1.7c.023-.019,3.433-3.5,3.433-3.5l-1.709-1.7S8.489,11.233,8.47,11.256Zm-6.8,3A1.674,1.674,0,0,1,0,12.584V1.671A1.674,1.674,0,0,1,1.674,0h7.97a1.675,1.675,0,0,1,1.674,1.671V5.98l-.612.628v-.5l0-.006V2.257A1.494,1.494,0,0,0,9.216.765H2.1A1.494,1.494,0,0,0,.607,2.257V12A1.5,1.5,0,0,0,2.1,13.49h4l-.174.765Zm.565-4.083L2.58,9.81l1.177,1.1L5.545,8.89l.339.3L3.757,11.595Zm0-3.115.341-.361L3.757,7.8,5.545,5.775l.339.3L3.757,8.48Zm3.895-.082V6.5H9.089v.478ZM2.239,3.941,2.58,3.58l1.177,1.1L5.545,2.66l.339.3L3.757,5.365Zm3.895-.066V3.4H9.089v.478Z" transform="translate(0.5 0.5)" stroke="rgba(0,0,0,0)" stroke-miterlimit="10" stroke-width="1"/>
</svg>
